<?xml version="1.0" standalone="no"?>
<!DOCTYPE svg PUBLIC "-//W3C//DTD SVG 20010904//EN"
 "http://www.w3.org/TR/2001/REC-SVG-20010904/DTD/svg10.dtd">
<svg version="1.0" xmlns="http://www.w3.org/2000/svg"
 width="222.000000pt" height="288.000000pt" viewBox="0 0 222.000000 288.000000"
 preserveAspectRatio="xMidYMid meet">
<metadata>
Created by potrace 1.15, written by Peter Selinger 2001-2017
</metadata>
<g transform="translate(0.000000,288.000000) scale(0.100000,-0.100000)"
fill="#000000" stroke="none">
<path d="M1440 2867 c-69 -24 -113 -148 -304 -853 -103 -380 -146 -515 -174
-553 -24 -32 -144 -101 -495 -282 -505 -261 -514 -270 -404 -351 23 -16 57
-37 75 -45 31 -13 36 -12 65 6 38 24 233 132 407 226 69 37 145 79 169 93 l44
26 -6 -33 c-15 -73 -253 -688 -334 -863 l-46 -97 27 -35 c14 -19 47 -52 72
-73 l46 -37 22 27 c27 33 56 107 256 646 183 494 215 575 241 617 23 38 155
127 294 201 108 57 131 63 139 36 7 -26 22 -165 51 -468 28 -303 60 -569 76
-643 16 -75 26 -85 82 -77 39 6 48 12 53 32 4 13 -5 214 -20 446 -33 536 -43
816 -28 843 21 40 232 124 312 124 41 0 43 2 55 72 10 60 -6 78 -68 78 -61 0
-157 -20 -242 -48 -33 -12 -63 -17 -68 -13 -4 4 -12 115 -17 247 -17 398 -42
547 -113 664 -51 84 -101 110 -167 87z m43 -449 c10 -55 27 -252 41 -458 15
-229 30 -200 -139 -284 -142 -71 -165 -80 -165 -62 0 64 230 836 249 836 5 0
11 -15 14 -32z"/>
</g>
</svg>
